<svg width="328" height="122" viewBox="0 0 328 122" fill="none" xmlns="http://www.w3.org/2000/svg">
<rect width="97.3263" height="16.353" transform="matrix(0.960121 0.279585 -0.274686 0.961534 26.9629 0)" fill="white"/>
<rect width="16.7618" height="43.9235" transform="matrix(0.960121 0.279585 -0.274686 0.961534 22.4709 15.7236)" fill="#BCBCBC"/>
<rect width="97.338" height="16.353" transform="matrix(0.960121 0.279585 -0.274686 0.961534 4.49194 78.6167)" fill="#A3A3A3"/>
<path d="M99.9643 100.741L46.6515 51.1521L108.948 69.2928L99.9643 100.741Z" fill="#A3A3A3"/>
<rect width="53.4578" height="16.353" transform="matrix(0.960121 0.279585 -0.274686 0.961534 42.0481 49.8115)" fill="#A3A3A3"/>
<path d="M125.496 87.504V83.76H140.376C141.336 83.76 141.816 83.28 141.816 82.32V78.864C141.816 77.936 141.416 77.408 140.616 77.28L131.256 75.36C127.416 74.592 125.496 72.016 125.496 67.632V64.944C125.496 59.568 128.184 56.88 133.56 56.88H144.552L147.768 59.376V63.12H133.848C132.888 63.12 132.408 63.6 132.408 64.56V67.68C132.408 68.576 132.808 69.104 133.608 69.264L142.968 71.136C146.808 71.904 148.728 74.48 148.728 78.864V81.936C148.728 87.312 146.04 90 140.664 90H128.712L125.496 87.504ZM154.675 81.936V64.944C154.675 59.568 157.363 56.88 162.739 56.88H173.683C179.059 56.88 181.747 59.568 181.747 64.944V81.936C181.747 87.312 179.059 90 173.683 90H162.739C157.363 90 154.675 87.312 154.675 81.936ZM161.587 82.32C161.587 83.28 162.067 83.76 163.027 83.76H173.395C174.355 83.76 174.835 83.28 174.835 82.32V64.56C174.835 63.6 174.355 63.12 173.395 63.12H163.027C162.067 63.12 161.587 63.6 161.587 64.56V82.32ZM189.139 90V56.88H196.051V83.76H210.355V90H189.139ZM215.436 90V56.88H238.092V63.12H222.348V69.84H236.652V76.08H222.348V83.76H238.092V90H215.436ZM241.333 58.176L242.197 56.88H248.293L255.829 83.76H256.597L264.181 56.88H270.229L271.093 58.176L261.685 90H250.741L241.333 58.176ZM275.905 90V56.88H298.561V63.12H282.817V69.84H297.121V76.08H282.817V83.76H298.561V90H275.905ZM304.874 90V56.88H311.786V83.76H326.09V90H304.874Z" fill="url(#paint0_linear_44_2)"/>
<defs>
<linearGradient id="paint0_linear_44_2" x1="123" y1="83.7726" x2="327.097" y2="60.3579" gradientUnits="userSpaceOnUse">
<stop stop-color="white"/>
<stop offset="1" stop-color="white"/>
</linearGradient>
</defs>
</svg>
